<?xml version="1.0" encoding="utf-8"?>
<!-- Generator: Adobe Illustrator 24.1.2, SVG Export Plug-In . SVG Version: 6.00 Build 0)  -->
<svg version="1.1" id="Layer_1" xmlns="http://www.w3.org/2000/svg" xmlns:xlink="http://www.w3.org/1999/xlink" x="0px" y="0px"
	 viewBox="0 0 344.8 184" style="enable-background:new 0 0 344.8 184;" xml:space="preserve">
<style type="text/css">
	.st0{fill:#FFBD1A;}
	.st1{fill:#FFFFFF;}
</style>
<rect x="242.6" y="24.3" transform="matrix(0.7071 -0.7071 0.7071 0.7071 54.0473 179.1319)" class="st0" width="1.4" height="0.1"/>
<rect x="242.6" y="24.3" transform="matrix(0.7071 -0.7071 0.7071 0.7071 54.0473 179.1319)" class="st0" width="1.4" height="0.1"/>
<rect x="242.6" y="24.3" transform="matrix(0.7071 -0.7071 0.7071 0.7071 54.0473 179.1319)" class="st0" width="1.4" height="0.1"/>
<g>
	<path class="st1" d="M335.4,68.7l-22.7-9.4l-20.6,8.5L260.3,36c6.7-8.8,6-21.4-2-29.4c-8.8-8.8-23-8.8-31.7,0
		c-8.2,8.2-8.7,21-1.7,29.8l-31.8,31.8l-20.5-8.5l-22.7,9.4l-9.4,22.7l8.5,20.6l-31.9,31.9c-8.2-6.8-20.1-6.8-28.4-0.1L56,111.3
		l8.1-19.5l-8.3-20.1l32.1-32.1c8.8,7.4,22,7,30.3-1.3c8.8-8.8,8.8-23,0-31.7s-23-8.8-31.7,0c-8.2,8.2-8.7,21-1.7,29.8L52.8,68.3
		l-20.7-8.6L9.4,69.1L0,91.8l9.4,22.7l22.7,9.4l21.3-8.8l32.3,32.3c-7.3,8.8-6.8,21.9,1.4,30.2c8.8,8.8,23,8.8,31.7,0
		c8.2-8.2,8.7-21.2,1.6-30l32-32l20.2,8.4l22.7-9.4l9.4-22.7l-8.4-20.4L228,39.7c8.5,7.1,21,7,29.3-0.3L289,71.1l-8.4,20.3l8.5,20.6
		L257,144.2c-8.8-7.2-21.9-6.7-30.1,1.5c-8.8,8.8-8.8,23,0,31.7c8.8,8.8,23,8.8,31.7,0c8.2-8.2,8.7-21.2,1.5-30.1l32.3-32.3
		l20.2,8.4l22.7-9.4l9.4-22.7L335.4,68.7z M242.8,24.9L242.8,24.9l0.9-1l0.1,0.1L242.8,24.9z"/>
</g>
</svg>
