<svg id="Layer_1" data-name="Layer 1" xmlns="http://www.w3.org/2000/svg" viewBox="0 0 838.45 184.01"><defs><style>.cls-1{fill:#fff;}</style></defs><circle class="cls-1" cx="102.95" cy="161.57" r="22.44"/><polygon class="cls-1" points="64.12 91.81 54.73 69.15 32.06 59.76 9.39 69.15 0 91.81 9.39 114.48 32.06 123.87 54.73 114.48 64.12 91.81"/><rect class="cls-1" x="79.92" y="99.53" width="4.49" height="96.17" transform="translate(229.81 172.07) rotate(135)"/><circle class="cls-1" cx="102.31" cy="22.44" r="22.44"/><rect class="cls-1" x="80.67" y="29.97" width="4.49" height="96.17" transform="translate(64.65 -57.6) rotate(45)"/><polygon class="cls-1" points="172.61 59.73 149.94 69.12 140.55 91.79 149.94 114.46 172.61 123.85 195.28 114.46 204.67 91.79 195.28 69.12 172.61 59.73"/><circle class="cls-1" cx="242.42" cy="22.51" r="22.44"/><rect class="cls-1" x="220.78" y="30.03" width="4.49" height="96.17" transform="translate(105.73 -156.66) rotate(45)"/><rect class="cls-1" x="151.4" y="99.6" width="4.49" height="96.17" transform="translate(143.03 338.92) rotate(-135)"/><circle class="cls-1" cx="242.73" cy="161.57" r="22.44"/><polygon class="cls-1" points="280.64 91.36 290.03 114.02 312.7 123.41 335.37 114.02 344.76 91.36 335.37 68.69 312.7 59.3 290.03 68.69 280.64 91.36"/><rect class="cls-1" x="290.9" y="30.96" width="4.49" height="96.17" transform="translate(15.13 208.6) rotate(-45)"/><rect class="cls-1" x="290.15" y="100.53" width="4.49" height="96.17" transform="translate(379.23 438.62) rotate(-135)"/><path class="cls-1" d="M393.85,67.73H412l19.9,62.49,19.91-62.49H470L438.81,161.4H425Z" transform="translate(-14.83 -21.84)"/><path class="cls-1" d="M496.76,161.4H478.47V67.73h18.29Z" transform="translate(-14.83 -21.84)"/><path class="cls-1" d="M511.5,67.73h17.65V161.4H511.5Zm8.89,76.66h22.48q8.7,0,13.47-4.19t4.76-11.85V100.78q0-7.66-4.76-11.85t-13.47-4.19H520.39v-17h22.1q11.71,0,20,3.93a27.88,27.88,0,0,1,12.59,11.47q4.32,7.53,4.32,18.16v26.55a36,36,0,0,1-4.16,17.65,28.34,28.34,0,0,1-12.46,11.72q-8.31,4.18-20.36,4.19h-22Z" transform="translate(-14.83 -21.84)"/><path class="cls-1" d="M587.71,77.1h59.48V88.35H587.71ZM611.53,84h11.83v77.4H611.53Z" transform="translate(-14.83 -21.84)"/><path class="cls-1" d="M647.7,101.22h11.83V161.4H647.7Zm29.16,11.36a14.23,14.23,0,0,0-5.51-1q-5.61,0-8.72,3.1c-2.07,2.07-3.1,4.93-3.1,8.61l-1.22-11.6a22.07,22.07,0,0,1,7.19-8.38,17,17,0,0,1,9.74-3,21.93,21.93,0,0,1,7.45,1.19,16.81,16.81,0,0,1,5.83,3.5l-7.72,10.44A9.82,9.82,0,0,0,676.86,112.58Z" transform="translate(-14.83 -21.84)"/><path class="cls-1" d="M698,157.66q-5.5-4.6-5.51-14,0-8.94,5-13.4t15.24-4.46H729.9l.81,9.51H712.85c-3.09,0-5.4.68-6.93,2.06s-2.29,3.47-2.29,6.29q0,4.58,3,6.78t9.25,2.2q6.78,0,10.11-1.45t3.34-4.52l1.21,8.47a13.87,13.87,0,0,1-3.85,4,16.88,16.88,0,0,1-5.31,2.34,26.63,26.63,0,0,1-6.78.79Q703.52,162.27,698,157.66Zm31.37-34.41q0-5.91-3.16-9.19t-9-3.28a22.88,22.88,0,0,0-7,1.11A20.74,20.74,0,0,0,704.1,115L695.46,109a22.55,22.55,0,0,1,9-6.4,32.45,32.45,0,0,1,12.43-2.29A28.58,28.58,0,0,1,729.72,103a18.24,18.24,0,0,1,8.12,7.65,24.5,24.5,0,0,1,2.78,12.09V161.4H729.38Z" transform="translate(-14.83 -21.84)"/><path class="cls-1" d="M762.89,159.19a20.77,20.77,0,0,1-8.9-8.92,30.11,30.11,0,0,1-3.07-14.15v-9.91a29.51,29.51,0,0,1,3.07-14,20.75,20.75,0,0,1,8.9-8.84,30,30,0,0,1,14.06-3,33.19,33.19,0,0,1,8.84,1.13,26.05,26.05,0,0,1,7.45,3.27,20.2,20.2,0,0,1,5.51,5.22l-8.52,7.66a17.56,17.56,0,0,0-6-4.47,17,17,0,0,0-7.13-1.56q-6.84,0-10.61,3.82t-3.77,10.79v9.91q0,7.13,3.74,11T777.13,151a16.15,16.15,0,0,0,7.19-1.68,17.45,17.45,0,0,0,5.91-4.76l8.52,8.24a21.16,21.16,0,0,1-5.56,5.13,26.5,26.5,0,0,1-7.45,3.22,34.37,34.37,0,0,1-8.79,1.1A29.79,29.79,0,0,1,762.89,159.19Z" transform="translate(-14.83 -21.84)"/><path class="cls-1" d="M816.24,159.14a21,21,0,0,1-9-9.19,31.91,31.91,0,0,1-3.1-14.64v-6.79a35.28,35.28,0,0,1,3-15.24,21.4,21.4,0,0,1,8.66-9.63,26.82,26.82,0,0,1,13.69-3.3,21.69,21.69,0,0,1,12.87,3.77,23.38,23.38,0,0,1,8.14,10.9,46.46,46.46,0,0,1,2.82,17.1v3.94H812.7v-9.51H842q-.52-7.36-3.8-11.45a10.67,10.67,0,0,0-8.78-4.08q-6.74,0-10.41,4.4t-3.68,12.47v7.65q0,7.49,3.94,11.48t11.19,4a18.59,18.59,0,0,0,7.13-1.45,20.54,20.54,0,0,0,6.32-4.06l7.77,7.77a32.89,32.89,0,0,1-10,6.64,28.67,28.67,0,0,1-11.19,2.35A30.18,30.18,0,0,1,816.24,159.14Z" transform="translate(-14.83 -21.84)"/></svg>