<?xml version="1.0" encoding="utf-8"?>
<!-- Generator: Adobe Illustrator 24.1.2, SVG Export Plug-In . SVG Version: 6.00 Build 0)  -->
<svg version="1.1" id="Layer_1" xmlns="http://www.w3.org/2000/svg" xmlns:xlink="http://www.w3.org/1999/xlink" x="0px" y="0px"
	 viewBox="0 0 285.8 57.3" style="enable-background:new 0 0 285.8 57.3;" xml:space="preserve">
<style type="text/css">
	.st0{fill:#253F61;}
	.st1{fill:#498FDB;}
</style>
<g>
	<path class="st0" d="M0,0h11l12.1,37.9L35.2,0h11L27.3,56.8h-8.4L0,0z"/>
	<path class="st0" d="M63.5,56.8H52.4V0h11.1V56.8z"/>
	<path class="st0" d="M75.2,0h10.7v56.8H75.2V0z M80.6,46.5h13.6c3.5,0,6.2-0.8,8.2-2.5c1.9-1.7,2.9-4.1,2.9-7.2V20
		c0-3.1-1-5.5-2.9-7.2c-1.9-1.7-4.6-2.5-8.2-2.5H80.6V0H94c4.7,0,8.8,0.8,12.1,2.4c3.3,1.6,5.9,3.9,7.6,7c1.7,3,2.6,6.7,2.6,11v16.1
		c0,4.1-0.8,7.7-2.5,10.7s-4.2,5.4-7.6,7.1C103,56,98.9,56.8,94,56.8H80.6V46.5z"/>
	<path class="st1" d="M124.8,5.7h36.1v6.8h-36.1V5.7z M139.2,9.9h7.2v46.9h-7.2V9.9z"/>
	<path class="st1" d="M161.2,20.3h7.2v36.5h-7.2V20.3z M178.8,27.2c-1-0.4-2.1-0.6-3.3-0.6c-2.3,0-4,0.6-5.3,1.9
		c-1.3,1.3-1.9,3-1.9,5.2l-0.7-7c1.1-2.2,2.6-3.9,4.4-5.1c1.8-1.2,3.7-1.8,5.9-1.8c1.7,0,3.2,0.2,4.5,0.7c1.3,0.5,2.5,1.2,3.5,2.1
		l-4.7,6.3C180.6,28.2,179.8,27.6,178.8,27.2z"/>
	<path class="st1" d="M191.7,54.5c-2.2-1.9-3.3-4.7-3.3-8.5c0-3.6,1-6.3,3.1-8.1s5.1-2.7,9.2-2.7H211l0.5,5.8h-10.8
		c-1.9,0-3.3,0.4-4.2,1.2s-1.4,2.1-1.4,3.8c0,1.9,0.6,3.2,1.8,4.1s3.1,1.3,5.6,1.3c2.7,0,4.8-0.3,6.1-0.9s2-1.5,2-2.7l0.7,5.1
		c-0.6,1-1.4,1.8-2.3,2.4s-2,1.1-3.2,1.4s-2.6,0.5-4.1,0.5C197.3,57.3,193.9,56.4,191.7,54.5z M210.7,33.7c0-2.4-0.6-4.2-1.9-5.6
		s-3.1-2-5.4-2c-1.5,0-2.9,0.2-4.3,0.7s-2.6,1.1-3.7,1.9l-5.2-3.6c1.4-1.7,3.2-3,5.5-3.9s4.8-1.4,7.5-1.4c3,0,5.6,0.5,7.8,1.6
		s3.8,2.6,4.9,4.6s1.7,4.5,1.7,7.3v23.4h-6.8V33.7z"/>
	<path class="st1" d="M231,55.5c-2.4-1.2-4.2-3-5.4-5.4c-1.2-2.4-1.9-5.2-1.9-8.6v-6c0-3.3,0.6-6.1,1.9-8.5c1.2-2.3,3-4.1,5.4-5.4
		s5.2-1.8,8.5-1.8c1.9,0,3.7,0.2,5.4,0.7c1.7,0.5,3.2,1.1,4.5,2s2.4,1.9,3.3,3.2l-5.2,4.6c-1-1.2-2.2-2.1-3.6-2.7
		c-1.4-0.6-2.8-0.9-4.3-0.9c-2.8,0-4.9,0.8-6.4,2.3c-1.5,1.5-2.3,3.7-2.3,6.5v6c0,2.9,0.8,5.1,2.3,6.7s3.7,2.4,6.5,2.4
		c1.5,0,3-0.3,4.4-1c1.4-0.7,2.6-1.6,3.6-2.9l5.2,5c-0.9,1.2-2,2.3-3.4,3.1s-2.8,1.5-4.5,2c-1.7,0.4-3.5,0.7-5.3,0.7
		C236.2,57.3,233.4,56.7,231,55.5z"/>
	<path class="st1" d="M263.4,55.4c-2.4-1.3-4.2-3.1-5.5-5.6c-1.3-2.4-1.9-5.4-1.9-8.9v-4.1c0-3.6,0.6-6.7,1.8-9.2
		c1.2-2.6,3-4.5,5.3-5.8c2.3-1.3,5.1-2,8.3-2c3,0,5.6,0.8,7.8,2.3c2.2,1.5,3.8,3.7,4.9,6.6c1.1,2.9,1.7,6.3,1.7,10.4v2.4h-24.6v-5.8
		H279c-0.2-3-1-5.3-2.3-6.9c-1.3-1.7-3.1-2.5-5.3-2.5c-2.7,0-4.8,0.9-6.3,2.7c-1.5,1.8-2.2,4.3-2.2,7.6v4.6c0,3,0.8,5.3,2.4,7
		c1.6,1.6,3.9,2.4,6.8,2.4c1.5,0,2.9-0.3,4.3-0.9c1.4-0.6,2.7-1.4,3.8-2.5l4.7,4.7c-1.8,1.7-3.8,3.1-6.1,4s-4.5,1.4-6.8,1.4
		C268.6,57.3,265.8,56.7,263.4,55.4z"/>
</g>
</svg>
